<svg width="64" height="64" viewBox="0 0 64 64" fill="none" xmlns="http://www.w3.org/2000/svg">
<rect width="64" height="64" rx="32" fill="#F53434" fill-opacity="0.1"/>
<path d="M32.8659 23.0002L42.3922 39.5002C42.6684 39.9785 42.5045 40.5901 42.0262 40.8662C41.8742 40.954 41.7017 41.0002 41.5262 41.0002H22.4736C21.9214 41.0002 21.4736 40.5525 21.4736 40.0002C21.4736 39.8246 21.5198 39.6522 21.6076 39.5002L31.1339 23.0002C31.41 22.5219 32.0216 22.358 32.4999 22.6341C32.6519 22.7219 32.7782 22.8481 32.8659 23.0002ZM30.9999 36.0002V38.0002H32.9999V36.0002H30.9999ZM30.9999 29.0002V34.0002H32.9999V29.0002H30.9999Z" fill="#F53434"/>
</svg>
